<svg width="27" height="170" viewBox="0 0 27 170" fill="none" xmlns="http://www.w3.org/2000/svg">
<g filter="url(#filter0_dff)">
<path d="M13.0808 153.315C14.7823 153.315 16.1617 154.694 16.1617 156.396C16.1617 158.097 14.7823 159.477 13.0808 159.477C11.3793 159.477 10 158.097 10 156.396C10 154.694 11.3793 153.315 13.0808 153.315Z" fill="white"/>
<path d="M13.0808 10C14.7823 10 16.1617 11.3793 16.1617 13.0808C16.1617 14.7823 14.7823 16.1617 13.0808 16.1617C11.3793 16.1617 10 14.7823 10 13.0808C10 11.3793 11.3793 10 13.0808 10Z" fill="white"/>
<path fill-rule="evenodd" clip-rule="evenodd" d="M13.35 13.0001L13.35 156H12.65L12.65 13.0001H13.35Z" fill="white"/>
</g>
<defs>
<filter id="filter0_dff" x="0" y="0" width="26.1617" height="169.477" filterUnits="userSpaceOnUse" color-interpolation-filters="sRGB">
<feFlood flood-opacity="0" result="BackgroundImageFix"/>
<feColorMatrix in="SourceAlpha" type="matrix" values="0 0 0 0 0 0 0 0 0 0 0 0 0 0 0 0 0 0 127 0" result="hardAlpha"/>
<feOffset/>
<feGaussianBlur stdDeviation="5"/>
<feComposite in2="hardAlpha" operator="out"/>
<feColorMatrix type="matrix" values="0 0 0 0 1 0 0 0 0 1 0 0 0 0 1 0 0 0 1 0"/>
<feBlend mode="normal" in2="BackgroundImageFix" result="effect1_dropShadow"/>
<feBlend mode="normal" in="SourceGraphic" in2="effect1_dropShadow" result="shape"/>
</filter>
</defs>
</svg>
